Coordinates
version=1
nRows=15
nColumns=23
inDegrees=yes

Units are S.I. units (second, meters, Newtons, ...)
If the header above contains a line with 'inDegrees', this indicates whether rotational values are in degrees (yes) or radians (no).

endheader
time	pelvis_tilt	pelvis_list	pelvis_rotation	pelvis_tx	pelvis_ty	pelvis_tz	hip_flexion_r	hip_adduction_r	hip_rotation_r	knee_angle_r	knee_angle_r_beta	ankle_angle_r	subtalar_angle_r	mtp_angle_r	hip_flexion_l	hip_adduction_l	hip_rotation_l	knee_angle_l	knee_angle_l_beta	ankle_angle_l	subtalar_angle_l	mtp_angle_l
      7.50000000	      1.66813822	     -6.77082405	     -3.56487581	      2.30913162	      1.00629419	      1.03100249	     24.40245670	     11.52176061	     -1.54516926	     38.74644894	      0.67625311	     12.02496087	     -4.47597979	      0.00000000	     -5.95879780	     -7.57951344	     -0.36184918	     63.94081062	      1.11597767	     -3.51719259	    -11.72140409	      0.00000000
      7.50666667	      1.38060943	     -6.90050118	     -3.64101523	      2.30827280	      1.00086427	      1.03138632	     24.99727436	     12.02458492	     -1.02501866	     41.11013786	      0.71750726	     12.93679183	     -5.76092518	      0.00000000	     -4.32831355	     -8.18277633	     -0.60817501	     66.04623920	      1.15272433	     -2.56928459	    -11.96343181	      0.00000000
      7.51333333	      1.28666376	     -7.10065446	     -3.61571074	      2.30731902	      0.99602316	      1.03155788	     25.23974860	     12.59299191	     -0.48045499	     43.23364344	      0.75456943	     14.28174748	     -6.91638197	      0.00000000	     -2.84512137	     -8.86760665	     -0.76368357	     68.04850058	      1.18767039	     -1.57989355	    -12.42396451	      0.00000000
      7.52000000	      1.13874988	     -7.27961787	     -3.63678740	      2.30628909	      0.99140718	      1.03173348	     25.42600273	     13.13027609	      0.04478629	     45.18294853	      0.78859122	     15.75742869	     -7.83538440	      0.00000000	     -1.25618368	     -9.53228289	     -0.93074404	     69.96678524	      1.22115077	     -0.66877638	    -12.97100593	      0.00000000
      7.52666667	      1.17254960	     -7.44746453	     -3.61265545	      2.30516567	      0.98745025	      1.03175570	     25.24970004	     13.61827912	      0.56169630	     46.85387264	      0.81775434	     17.30322483	     -8.56345115	      0.00000000	      0.18494697	    -10.11990184	     -0.98209180	     71.74822391	      1.25224274	      0.20235881	    -13.62539231	      0.00000000
      7.53333333	      1.44020125	     -7.53899374	     -3.52965963	      2.30393921	      0.98421275	      1.03162550	     24.68055093	     13.93494774	      0.97548516	     48.27830659	      0.84261541	     18.64076175	     -9.12504943	      0.00000000	      1.41460435	    -10.62831430	     -1.03372319	     73.35368315	      1.28026329	      0.96993337	    -14.29901836	      0.00000000
      7.54000000	      1.21132012	     -7.57071517	     -3.55844980	      2.30246172	      0.98077571	      1.03161823	     24.51695607	     14.31213648	      1.61557007	     49.47304481	      0.86346752	     20.18607040	     -9.69594242	      0.00000000	      3.29666661	    -10.97002763	     -0.89627979	     74.98675981	      1.30876585	      1.84978831	    -14.92773034	      0.00000000
      7.54666667	      0.63382823	     -7.41558805	     -3.56038758	      2.30072618	      0.97727563	      1.03156625	     24.66262347	     14.45318366	      2.18950873	     50.51312246	      0.88162030	     21.34147106	    -10.31578813	      0.00000000	      5.69043780	    -11.13616289	     -0.69659054	     76.56691329	      1.33634473	      2.62496774	    -15.41509403	      0.00000000
      7.55333333	      0.57915645	     -7.31566714	     -3.46363133	      2.29910687	      0.97504366	      1.03128079	     24.03123028	     14.52386588	      2.62006481	     51.19547729	      0.89352964	     22.51289569	    -10.64943793	      0.00000000	      7.46354018	    -11.23673703	     -0.40189524	     77.84273542	      1.35861203	      3.34926182	    -15.95600149	      0.00000000
      7.56000000	      0.83507885	     -7.19703183	     -3.31875512	      2.29759208	      0.97375846	      1.03093997	     22.88059824	     14.50690932	      3.00671271	     51.57460437	      0.90014666	     23.59419055	    -10.86348772	      0.00000000	      8.86333471	    -11.23545501	     -0.06377373	     78.85902496	      1.37634963	      4.05754015	    -16.41752021	      0.00000000
      7.56666667	      0.92020693	     -7.02520219	     -3.13493513	      2.29603425	      0.97277877	      1.03050339	     21.81212285	     14.37678135	      3.29752650	     51.74113339	      0.90305314	     24.61535123	    -10.98063136	      0.00000000	     10.48714451	    -11.12171363	      0.37505664	     79.72966904	      1.39154524	      4.76430200	    -16.78226735	      0.00000000
      7.57333333	      0.72076466	     -6.78119559	     -2.85107499	      2.29440939	      0.97181940	      1.02987037	     21.01998031	     14.00773332	      3.23598371	     51.79206885	      0.90394213	     25.52537055	    -10.71743792	      0.00000000	     12.48921708	    -10.85954958	      0.96999118	     80.48840438	      1.40478767	      5.46497276	    -16.95295344	      0.00000000
      7.58000000	      0.84249685	     -6.52942770	     -2.74853743	      2.29299014	      0.97204137	      1.02950817	     19.64035609	     13.76524037	      3.58373765	     51.46857226	      0.89829605	     26.11302205	    -10.62531369	      0.00000000	     13.94805489	    -10.56608459	      1.32375403	     80.85865454	      1.41124975	      5.94618136	    -17.05681113	      0.00000000
      7.58666667	      1.00024332	     -6.32622843	     -2.40594385	      2.29158834	      0.97244717	      1.02879324	     18.23040035	     13.36168511	      3.44693716	     51.09702966	      0.89181141	     26.91612345	    -10.43441475	      0.00000000	     15.43390285	    -10.21310187	      1.96094493	     81.15344975	      1.41639490	      6.81973959	    -17.11314167	      0.00000000
      7.59333333	      1.20040790	     -6.08725942	     -2.03184052	      2.29047011	      0.97349921	      1.02798405	     16.65411617	     12.76759476	      3.01067408	     50.47541106	      0.88096211	     27.50983403	     -9.41580357	      0.00000000	     16.77234169	     -9.79787101	      2.54141804	     81.15546540	      1.41643008	      7.59263634	    -16.79164923	      0.00000000
